<svg width="20px" height="22px" viewBox="0 0 20 22" version="1.1" xmlns="http://www.w3.org/2000/svg" xmlns:xlink="http://www.w3.org/1999/xlink">
    <!-- Generator: Sketch 49.3 (51167) - http://www.bohemiancoding.com/sketch -->
    <desc>Created with Sketch.</desc>
    <defs></defs>
    <g id="Page-1" stroke="none" stroke-width="1" fill="none" fill-rule="evenodd">
        <g id="start" transform="translate(-20.000000, -75.000000)" fill-rule="nonzero">
            <g id="steem-steem-logo-svg-vector" transform="translate(20.000000, 75.000000)">
                <path d="M2.41177037,2.38298293 C1.48988435,3.15460685 0.538366278,4.10556342 0.151503394,5.26546719 C-0.294623591,6.63267291 0.329295698,8.0294932 0.925229161,9.24698084 C1.5195164,10.4940831 2.17306774,11.713216 2.73772293,12.9899327 C3.18384991,14.0001184 3.8077692,15.1879915 3.65960895,16.3182807 C3.54108074,17.1211645 3.27274606,17.8927884 3.12458581,18.6956721 C3.00605761,19.2303795 3.51144869,18.6956721 3.689241,18.5475993 C4.72965522,17.6558719 5.8589656,16.6456862 6.27546053,15.2784804 C6.48288488,14.5957002 6.36435668,13.9705039 6.12730028,13.3173382 C5.89024387,12.6937871 5.62190919,12.0998505 5.35357451,11.4746542 C4.78891932,10.2259067 4.19463208,8.97880451 3.59869862,7.73005705 C3.36164222,7.28419333 3.12293959,6.80871504 2.91551523,6.33323676 C2.70809088,5.82814391 2.58791645,5.2934365 2.5582844,4.72911452 C2.52865235,4.28325081 2.52865235,3.86700165 2.58791645,3.42113793 C2.6175485,3.09373247 2.70644465,2.79758683 2.7360767,2.47018137 C2.76735498,2.29413923 2.61919472,2.23326485 2.41177037,2.38298293 Z M16.0276976,2.38298293 C15.1058116,3.15625211 14.1542936,4.10720867 13.7674307,5.26546719 C13.3213037,6.63267291 13.945223,8.0294932 14.5411564,9.24698084 C15.1354437,10.4957283 15.7906412,11.713216 16.3552964,12.991578 C16.8014234,14.0017637 17.4253427,15.1896368 17.2771824,16.319926 C17.1586542,17.1228097 16.8903196,17.8944336 16.7421593,18.6973174 C16.6236311,19.2320248 17.1290222,18.6973174 17.3068145,18.5492446 C18.3472287,17.6575171 19.4765391,16.6473314 19.893034,15.2801257 C20.1004584,14.5973455 19.9819302,13.9721491 19.7448738,13.3189834 C19.5078174,12.6954323 19.2394827,12.1014958 18.971148,11.4762994 C18.4064928,10.227552 17.8122056,8.98044976 17.2162721,7.7317023 C16.9792157,7.28583858 16.7405131,6.8103603 16.5330887,6.33488201 C16.3256644,5.82978917 16.2054899,5.29508175 16.1758579,4.73075978 C16.1462258,4.28489606 16.1462258,3.8686469 16.2054899,3.42278319 C16.235122,3.09537772 16.3240182,2.79923208 16.3536502,2.47182662 C16.3849285,2.29413923 16.2367682,2.23326485 16.0276976,2.38298293 Z" id="Shape" fill="#165098"></path>
                <path d="M9.00352816,0.131395363 C7.9644232,0.993928904 6.83653396,2.03423653 6.21175566,3.25231825 C5.76619008,4.11485179 5.70700056,5.00701435 5.94375865,5.89753084 C6.24135042,6.96746749 6.65567708,8.03740413 7.10124266,9.07771176 C7.96277905,11.06944 9.09066829,12.9426521 9.92260992,14.9640094 C10.2202017,15.6767518 10.5457441,16.4800273 10.6049336,17.2833028 C10.6641231,18.2643524 10.3369366,19.30466 10.0705837,20.2264516 C10.0113942,20.4947588 9.83382563,20.850307 9.86342039,21.1186141 C9.89301515,21.3260172 10.0113942,21.2371302 10.1314174,21.1482432 C10.6361725,20.7614199 11.1409276,20.3153386 11.5864932,19.8692574 C12.8031667,18.7104337 14.1990529,17.1631407 14.0806739,15.3508326 C14.0214844,14.6068151 13.6647031,13.8940727 13.3687555,13.2109593 C13.0415689,12.4093299 12.6864318,11.6373294 12.3296505,10.8636829 C11.6769216,9.40692304 10.9929538,7.97979216 10.2810354,6.55266128 C10.0442773,6.04732197 9.7466855,5.57161168 9.56911693,5.06627237 C9.30111993,4.38315898 9.18274088,3.66877051 9.15314612,2.9560281 C9.12355136,2.42105978 9.15314612,1.85646244 9.21233564,1.32149412 C9.2419304,0.964299889 9.36030945,0.638380727 9.36030945,0.281186493 C9.44909373,-0.0463787253 9.27152516,-0.07600774 9.00352816,0.131395363 Z" id="Shape" fill="#5C9DD5"></path>
            </g>
        </g>
    </g>
</svg>
